<svg width="240" height="240" viewBox="0 0 240 240" fill="none" xmlns="http://www.w3.org/2000/svg">
<g clip-path="url(#clip0_310_17)">
<rect width="240" height="240" fill="white"/>
<mask id="path-1-inside-1_310_17" fill="white">
<path d="M20 18H222V218H20V18Z"/>
</mask>
<path d="M20 18V17H19V18H20ZM20 18V19H222V18V17H20V18ZM20 218H21V18H20H19V218H20Z" fill="black" mask="url(#path-1-inside-1_310_17)"/>
<mask id="path-3-outside-2_310_17" maskUnits="userSpaceOnUse" x="38" y="112" width="186" height="105" fill="black">
<rect fill="white" x="38" y="112" width="186" height="105"/>
<path d="M39.6364 113.455H46.3636L62.1818 152.091H62.7273L78.5455 113.455H85.2727V160H80V124.636H79.5455L65 160H59.9091L45.3636 124.636H44.9091V160H39.6364V113.455ZM95.283 160H89.3739L106.465 113.455H112.283L129.374 160H123.465L109.556 120.818H109.192L95.283 160ZM97.4648 141.818H121.283V146.818H97.4648V141.818ZM125.441 118.455V113.455H160.35V118.455H145.714V160H140.077V118.455H125.441ZM163.303 118.455V113.455H198.213V118.455H183.576V160H177.94V118.455H163.303ZM39.6364 216V169.455H45.2727V192.545H45.8182L66.7273 169.455H74.0909L54.5455 190.455L74.0909 216H67.2727L51.0909 194.364L45.2727 200.909V216H39.6364ZM78.1864 216V169.455H83.8227V211H105.459V216H78.1864ZM110.986 216V169.455H139.077V174.455H116.623V190.182H137.623V195.182H116.623V211H139.441V216H110.986ZM142.036 169.455H148.491L161.4 191.182H161.945L174.855 169.455H181.309L164.491 196.818V216H158.855V196.818L142.036 169.455ZM222.308 169.455V216H216.853L191.49 179.455H191.035V216H185.399V169.455H190.853L216.308 206.091H216.762V169.455H222.308Z"/>
</mask>
<path d="M39.6364 113.455H46.3636L62.1818 152.091H62.7273L78.5455 113.455H85.2727V160H80V124.636H79.5455L65 160H59.9091L45.3636 124.636H44.9091V160H39.6364V113.455ZM95.283 160H89.3739L106.465 113.455H112.283L129.374 160H123.465L109.556 120.818H109.192L95.283 160ZM97.4648 141.818H121.283V146.818H97.4648V141.818ZM125.441 118.455V113.455H160.35V118.455H145.714V160H140.077V118.455H125.441ZM163.303 118.455V113.455H198.213V118.455H183.576V160H177.94V118.455H163.303ZM39.6364 216V169.455H45.2727V192.545H45.8182L66.7273 169.455H74.0909L54.5455 190.455L74.0909 216H67.2727L51.0909 194.364L45.2727 200.909V216H39.6364ZM78.1864 216V169.455H83.8227V211H105.459V216H78.1864ZM110.986 216V169.455H139.077V174.455H116.623V190.182H137.623V195.182H116.623V211H139.441V216H110.986ZM142.036 169.455H148.491L161.4 191.182H161.945L174.855 169.455H181.309L164.491 196.818V216H158.855V196.818L142.036 169.455ZM222.308 169.455V216H216.853L191.49 179.455H191.035V216H185.399V169.455H190.853L216.308 206.091H216.762V169.455H222.308Z" fill="black"/>
<path d="M39.6364 113.455V112.455H38.6364V113.455H39.6364ZM46.3636 113.455L47.2891 113.076L47.0348 112.455H46.3636V113.455ZM62.1818 152.091L61.2564 152.47L61.5107 153.091H62.1818V152.091ZM62.7273 152.091V153.091H63.3984L63.6527 152.47L62.7273 152.091ZM78.5455 113.455V112.455H77.8743L77.62 113.076L78.5455 113.455ZM85.2727 113.455H86.2727V112.455H85.2727V113.455ZM85.2727 160V161H86.2727V160H85.2727ZM80 160H79V161H80V160ZM80 124.636H81V123.636H80V124.636ZM79.5455 124.636V123.636H78.8755L78.6206 124.256L79.5455 124.636ZM65 160V161H65.67L65.9248 160.38L65 160ZM59.9091 160L58.9843 160.38L59.2391 161H59.9091V160ZM45.3636 124.636L46.2885 124.256L46.0336 123.636H45.3636V124.636ZM44.9091 124.636V123.636H43.9091V124.636H44.9091ZM44.9091 160V161H45.9091V160H44.9091ZM39.6364 160H38.6364V161H39.6364V160ZM39.6364 113.455V114.455H46.3636V113.455V112.455H39.6364V113.455ZM46.3636 113.455L45.4382 113.833L61.2564 152.47L62.1818 152.091L63.1073 151.712L47.2891 113.076L46.3636 113.455ZM62.1818 152.091V153.091H62.7273V152.091V151.091H62.1818V152.091ZM62.7273 152.091L63.6527 152.47L79.4709 113.833L78.5455 113.455L77.62 113.076L61.8018 151.712L62.7273 152.091ZM78.5455 113.455V114.455H85.2727V113.455V112.455H78.5455V113.455ZM85.2727 113.455H84.2727V160H85.2727H86.2727V113.455H85.2727ZM85.2727 160V159H80V160V161H85.2727V160ZM80 160H81V124.636H80H79V160H80ZM80 124.636V123.636H79.5455V124.636V125.636H80V124.636ZM79.5455 124.636L78.6206 124.256L64.0752 159.62L65 160L65.9248 160.38L80.4703 125.017L79.5455 124.636ZM65 160V159H59.9091V160V161H65V160ZM59.9091 160L60.8339 159.62L46.2885 124.256L45.3636 124.636L44.4388 125.017L58.9843 160.38L59.9091 160ZM45.3636 124.636V123.636H44.9091V124.636V125.636H45.3636V124.636ZM44.9091 124.636H43.9091V160H44.9091H45.9091V124.636H44.9091ZM44.9091 160V159H39.6364V160V161H44.9091V160ZM39.6364 160H40.6364V113.455H39.6364H38.6364V160H39.6364ZM95.283 160V161H95.9891L96.2253 160.335L95.283 160ZM89.3739 160L88.4351 159.655L87.9414 161H89.3739V160ZM106.465 113.455V112.455H105.767L105.526 113.11L106.465 113.455ZM112.283 113.455L113.222 113.11L112.981 112.455H112.283V113.455ZM129.374 160V161H130.806L130.313 159.655L129.374 160ZM123.465 160L122.522 160.335L122.759 161H123.465V160ZM109.556 120.818L110.498 120.484L110.262 119.818H109.556V120.818ZM109.192 120.818V119.818H108.486L108.25 120.484L109.192 120.818ZM97.4648 141.818V140.818H96.4648V141.818H97.4648ZM121.283 141.818H122.283V140.818H121.283V141.818ZM121.283 146.818V147.818H122.283V146.818H121.283ZM97.4648 146.818H96.4648V147.818H97.4648V146.818ZM95.283 160V159H89.3739V160V161H95.283V160ZM89.3739 160L90.3126 160.345L107.403 113.799L106.465 113.455L105.526 113.11L88.4351 159.655L89.3739 160ZM106.465 113.455V114.455H112.283V113.455V112.455H106.465V113.455ZM112.283 113.455L111.344 113.799L128.435 160.345L129.374 160L130.313 159.655L113.222 113.11L112.283 113.455ZM129.374 160V159H123.465V160V161H129.374V160ZM123.465 160L124.407 159.665L110.498 120.484L109.556 120.818L108.613 121.153L122.522 160.335L123.465 160ZM109.556 120.818V119.818H109.192V120.818V121.818H109.556V120.818ZM109.192 120.818L108.25 120.484L94.3406 159.665L95.283 160L96.2253 160.335L110.134 121.153L109.192 120.818ZM97.4648 141.818V142.818H121.283V141.818V140.818H97.4648V141.818ZM121.283 141.818H120.283V146.818H121.283H122.283V141.818H121.283ZM121.283 146.818V145.818H97.4648V146.818V147.818H121.283V146.818ZM97.4648 146.818H98.4648V141.818H97.4648H96.4648V146.818H97.4648ZM125.441 118.455H124.441V119.455H125.441V118.455ZM125.441 113.455V112.455H124.441V113.455H125.441ZM160.35 113.455H161.35V112.455H160.35V113.455ZM160.35 118.455V119.455H161.35V118.455H160.35ZM145.714 118.455V117.455H144.714V118.455H145.714ZM145.714 160V161H146.714V160H145.714ZM140.077 160H139.077V161H140.077V160ZM140.077 118.455H141.077V117.455H140.077V118.455ZM125.441 118.455H126.441V113.455H125.441H124.441V118.455H125.441ZM125.441 113.455V114.455H160.35V113.455V112.455H125.441V113.455ZM160.35 113.455H159.35V118.455H160.35H161.35V113.455H160.35ZM160.35 118.455V117.455H145.714V118.455V119.455H160.35V118.455ZM145.714 118.455H144.714V160H145.714H146.714V118.455H145.714ZM145.714 160V159H140.077V160V161H145.714V160ZM140.077 160H141.077V118.455H140.077H139.077V160H140.077ZM140.077 118.455V117.455H125.441V118.455V119.455H140.077V118.455ZM163.303 118.455H162.303V119.455H163.303V118.455ZM163.303 113.455V112.455H162.303V113.455H163.303ZM198.212 113.455H199.212V112.455H198.212V113.455ZM198.212 118.455V119.455H199.212V118.455H198.212ZM183.576 118.455V117.455H182.576V118.455H183.576ZM183.576 160V161H184.576V160H183.576ZM177.94 160H176.94V161H177.94V160ZM177.94 118.455H178.94V117.455H177.94V118.455ZM163.303 118.455H164.303V113.455H163.303H162.303V118.455H163.303ZM163.303 113.455V114.455H198.212V113.455V112.455H163.303V113.455ZM198.212 113.455H197.212V118.455H198.212H199.212V113.455H198.212ZM198.212 118.455V117.455H183.576V118.455V119.455H198.212V118.455ZM183.576 118.455H182.576V160H183.576H184.576V118.455H183.576ZM183.576 160V159H177.94V160V161H183.576V160ZM177.94 160H178.94V118.455H177.94H176.94V160H177.94ZM177.94 118.455V117.455H163.303V118.455V119.455H177.94V118.455ZM39.6364 216H38.6364V217H39.6364V216ZM39.6364 169.455V168.455H38.6364V169.455H39.6364ZM45.2727 169.455H46.2727V168.455H45.2727V169.455ZM45.2727 192.545H44.2727V193.545H45.2727V192.545ZM45.8182 192.545V193.545H46.2617L46.5594 193.217L45.8182 192.545ZM66.7273 169.455V168.455H66.2837L65.986 168.783L66.7273 169.455ZM74.0909 169.455L74.8229 170.136L76.3878 168.455H74.0909V169.455ZM54.5455 190.455L53.8135 189.773L53.2381 190.391L53.7513 191.062L54.5455 190.455ZM74.0909 216V217H76.1152L74.8851 215.392L74.0909 216ZM67.2727 216L66.4719 216.599L66.7719 217H67.2727V216ZM51.0909 194.364L51.8917 193.765L51.1577 192.783L50.3435 193.699L51.0909 194.364ZM45.2727 200.909L44.5253 200.245L44.2727 200.529V200.909H45.2727ZM45.2727 216V217H46.2727V216H45.2727ZM39.6364 216H40.6364V169.455H39.6364H38.6364V216H39.6364ZM39.6364 169.455V170.455H45.2727V169.455V168.455H39.6364V169.455ZM45.2727 169.455H44.2727V192.545H45.2727H46.2727V169.455H45.2727ZM45.2727 192.545V193.545H45.8182V192.545V191.545H45.2727V192.545ZM45.8182 192.545L46.5594 193.217L67.4685 170.126L66.7273 169.455L65.986 168.783L45.0769 191.874L45.8182 192.545ZM66.7273 169.455V170.455H74.0909V169.455V168.455H66.7273V169.455ZM74.0909 169.455L73.3589 168.773L53.8135 189.773L54.5455 190.455L55.2775 191.136L74.8229 170.136L74.0909 169.455ZM54.5455 190.455L53.7513 191.062L73.2967 216.608L74.0909 216L74.8851 215.392L55.3397 189.847L54.5455 190.455ZM74.0909 216V215H67.2727V216V217H74.0909V216ZM67.2727 216L68.0735 215.401L51.8917 193.765L51.0909 194.364L50.2901 194.963L66.4719 216.599L67.2727 216ZM51.0909 194.364L50.3435 193.699L44.5253 200.245L45.2727 200.909L46.0201 201.573L51.8383 195.028L51.0909 194.364ZM45.2727 200.909H44.2727V216H45.2727H46.2727V200.909H45.2727ZM45.2727 216V215H39.6364V216V217H45.2727V216ZM78.1864 216H77.1864V217H78.1864V216ZM78.1864 169.455V168.455H77.1864V169.455H78.1864ZM83.8227 169.455H84.8227V168.455H83.8227V169.455ZM83.8227 211H82.8227V212H83.8227V211ZM105.459 211H106.459V210H105.459V211ZM105.459 216V217H106.459V216H105.459ZM78.1864 216H79.1864V169.455H78.1864H77.1864V216H78.1864ZM78.1864 169.455V170.455H83.8227V169.455V168.455H78.1864V169.455ZM83.8227 169.455H82.8227V211H83.8227H84.8227V169.455H83.8227ZM83.8227 211V212H105.459V211V210H83.8227V211ZM105.459 211H104.459V216H105.459H106.459V211H105.459ZM105.459 216V215H78.1864V216V217H105.459V216ZM110.986 216H109.986V217H110.986V216ZM110.986 169.455V168.455H109.986V169.455H110.986ZM139.077 169.455H140.077V168.455H139.077V169.455ZM139.077 174.455V175.455H140.077V174.455H139.077ZM116.623 174.455V173.455H115.623V174.455H116.623ZM116.623 190.182H115.623V191.182H116.623V190.182ZM137.623 190.182H138.623V189.182H137.623V190.182ZM137.623 195.182V196.182H138.623V195.182H137.623ZM116.623 195.182V194.182H115.623V195.182H116.623ZM116.623 211H115.623V212H116.623V211ZM139.441 211H140.441V210H139.441V211ZM139.441 216V217H140.441V216H139.441ZM110.986 216H111.986V169.455H110.986H109.986V216H110.986ZM110.986 169.455V170.455H139.077V169.455V168.455H110.986V169.455ZM139.077 169.455H138.077V174.455H139.077H140.077V169.455H139.077ZM139.077 174.455V173.455H116.623V174.455V175.455H139.077V174.455ZM116.623 174.455H115.623V190.182H116.623H117.623V174.455H116.623ZM116.623 190.182V191.182H137.623V190.182V189.182H116.623V190.182ZM137.623 190.182H136.623V195.182H137.623H138.623V190.182H137.623ZM137.623 195.182V194.182H116.623V195.182V196.182H137.623V195.182ZM116.623 195.182H115.623V211H116.623H117.623V195.182H116.623ZM116.623 211V212H139.441V211V210H116.623V211ZM139.441 211H138.441V216H139.441H140.441V211H139.441ZM139.441 216V215H110.986V216V217H139.441V216ZM142.036 169.455V168.455H140.248L141.184 169.978L142.036 169.455ZM148.491 169.455L149.351 168.944L149.06 168.455H148.491V169.455ZM161.4 191.182L160.54 191.693L160.831 192.182H161.4V191.182ZM161.945 191.182V192.182H162.514L162.805 191.693L161.945 191.182ZM174.855 169.455V168.455H174.286L173.995 168.944L174.855 169.455ZM181.309 169.455L182.161 169.978L183.097 168.455H181.309V169.455ZM164.491 196.818L163.639 196.295L163.491 196.535V196.818H164.491ZM164.491 216V217H165.491V216H164.491ZM158.855 216H157.855V217H158.855V216ZM158.855 196.818H159.855V196.535L159.706 196.295L158.855 196.818ZM142.036 169.455V170.455H148.491V169.455V168.455H142.036V169.455ZM148.491 169.455L147.631 169.965L160.54 191.693L161.4 191.182L162.26 190.671L149.351 168.944L148.491 169.455ZM161.4 191.182V192.182H161.945V191.182V190.182H161.4V191.182ZM161.945 191.182L162.805 191.693L175.714 169.965L174.855 169.455L173.995 168.944L161.086 190.671L161.945 191.182ZM174.855 169.455V170.455H181.309V169.455V168.455H174.855V169.455ZM181.309 169.455L180.457 168.931L163.639 196.295L164.491 196.818L165.343 197.342L182.161 169.978L181.309 169.455ZM164.491 196.818H163.491V216H164.491H165.491V196.818H164.491ZM164.491 216V215H158.855V216V217H164.491V216ZM158.855 216H159.855V196.818H158.855H157.855V216H158.855ZM158.855 196.818L159.706 196.295L142.888 168.931L142.036 169.455L141.184 169.978L158.003 197.342L158.855 196.818ZM222.308 169.455H223.308V168.455H222.308V169.455ZM222.308 216V217H223.308V216H222.308ZM216.853 216L216.032 216.57L216.33 217H216.853V216ZM191.49 179.455L192.311 178.884L192.013 178.455H191.49V179.455ZM191.035 179.455V178.455H190.035V179.455H191.035ZM191.035 216V217H192.035V216H191.035ZM185.399 216H184.399V217H185.399V216ZM185.399 169.455V168.455H184.399V169.455H185.399ZM190.853 169.455L191.675 168.884L191.376 168.455H190.853V169.455ZM216.308 206.091L215.487 206.661L215.785 207.091H216.308V206.091ZM216.762 206.091V207.091H217.762V206.091H216.762ZM216.762 169.455V168.455H215.762V169.455H216.762ZM222.308 169.455H221.308V216H222.308H223.308V169.455H222.308ZM222.308 216V215H216.853V216V217H222.308V216ZM216.853 216L217.675 215.43L192.311 178.884L191.49 179.455L190.668 180.025L216.032 216.57L216.853 216ZM191.49 179.455V178.455H191.035V179.455V180.455H191.49V179.455ZM191.035 179.455H190.035V216H191.035H192.035V179.455H191.035ZM191.035 216V215H185.399V216V217H191.035V216ZM185.399 216H186.399V169.455H185.399H184.399V216H185.399ZM185.399 169.455V170.455H190.853V169.455V168.455H185.399V169.455ZM190.853 169.455L190.032 170.025L215.487 206.661L216.308 206.091L217.129 205.52L191.675 168.884L190.853 169.455ZM216.308 206.091V207.091H216.762V206.091V205.091H216.308V206.091ZM216.762 206.091H217.762V169.455H216.762H215.762V206.091H216.762ZM216.762 169.455V170.455H222.308V169.455V168.455H216.762V169.455Z" fill="black" mask="url(#path-3-outside-2_310_17)"/>
</g>
<defs>
<clipPath id="clip0_310_17">
<rect width="240" height="240" fill="white"/>
</clipPath>
</defs>
</svg>
