<svg width="19" height="19" viewBox="0 0 19 19" fill="none" xmlns="http://www.w3.org/2000/svg">
<path fill-rule="evenodd" clip-rule="evenodd" d="M3.33333 0C2.44928 0 1.60143 0.35119 0.976311 0.976311C0.35119 1.60143 0 2.44928 0 3.33333V15C0 15.8841 0.35119 16.7319 0.976311 17.357C1.60143 17.9821 2.44928 18.3333 3.33333 18.3333H15C15.8841 18.3333 16.7319 17.9821 17.357 17.357C17.9821 16.7319 18.3333 15.8841 18.3333 15V3.33333C18.3333 2.44928 17.9821 1.60143 17.357 0.976311C16.7319 0.35119 15.8841 0 15 0H3.33333ZM4.3375 5.75833C4.71433 5.75833 5.07572 5.60864 5.34218 5.34218C5.60864 5.07572 5.75833 4.71433 5.75833 4.3375C5.75833 3.96067 5.60864 3.59928 5.34218 3.33282C5.07572 3.06636 4.71433 2.91667 4.3375 2.91667C3.96067 2.91667 3.59928 3.06636 3.33282 3.33282C3.06636 3.59928 2.91667 3.96067 2.91667 4.3375C2.91667 4.71433 3.06636 5.07572 3.33282 5.34218C3.59928 5.60864 3.96067 5.75833 4.3375 5.75833ZM5.7575 15.4167V6.89417H2.91667V15.4167H5.7575ZM9.45083 6.89417H6.89417V15.4167H9.45083V10.275C9.78 9.74 10.3483 9.16667 11.155 9.16667C12.2917 9.16667 12.5758 10.3033 12.5758 10.8717V15.4167H15.4167V10.8717C15.4167 9.34833 14.7525 6.89417 12.2917 6.89417C10.7267 6.89417 9.85833 7.465 9.45 8L9.45083 6.89417Z" fill="black"/>
</svg>
