<svg width="20" height="6" viewBox="0 0 20 6" fill="none" xmlns="http://www.w3.org/2000/svg">
<path d="M19.17 5.98C19.2789 5.98011 19.3867 5.95877 19.4874 5.9172C19.588 5.87563 19.6795 5.81465 19.7566 5.73773C19.8336 5.66081 19.8948 5.56947 19.9366 5.46891C19.9783 5.36836 19.9999 5.26055 20 5.15167C20.0001 5.04278 19.9788 4.93494 19.9372 4.8343C19.8956 4.73365 19.8347 4.64219 19.7577 4.56511C19.6808 4.48804 19.5895 4.42687 19.4889 4.3851C19.3884 4.34333 19.2806 4.32178 19.1717 4.32167C18.9518 4.32145 18.7408 4.40859 18.5851 4.56393C18.4295 4.71928 18.3419 4.93009 18.3417 5.15C18.3414 5.36991 18.4286 5.5809 18.5839 5.73655C18.7393 5.89221 18.9501 5.97978 19.17 5.98ZM18.34 2.8925H17.6317C17.1767 2.8925 16.9317 3.23417 16.9317 3.8025V5.8575H15.59V2.8925H15.02C14.5642 2.8925 14.32 3.23417 14.32 3.8025V5.8575H12.9783V1.79583H14.32V2.4125C14.54 1.93417 14.8417 1.79583 15.2892 1.79583H16.9325V2.4125C17.1525 1.93417 17.4533 1.79583 17.9008 1.79583H18.34V2.8925ZM12.685 4.14333H9.88583C9.95917 4.59833 10.2442 4.85833 10.7242 4.85833C11.0825 4.85833 11.3342 4.7125 11.4158 4.4525L12.6033 4.78583C12.3108 5.4925 11.5867 5.9225 10.7242 5.9225C9.2675 5.9225 8.6 4.79333 8.6 3.82667C8.6 2.87667 9.18583 1.73917 10.6417 1.73917C12.1883 1.73917 12.7008 2.8925 12.7008 3.74583C12.7008 3.9325 12.6925 4.05417 12.6842 4.14333H12.685ZM11.3833 3.35583C11.35 3.00583 11.0983 2.68083 10.6425 2.68083C10.2192 2.68083 9.9675 2.86833 9.88583 3.35583H11.3833ZM6.25667 5.85667H7.43667L8.90917 1.795H7.55917L6.8425 4.15917L6.11083 1.795H4.76667L6.25667 5.85667ZM0.756667 5.85667H2.09167V2.89167H3.36167V5.85667H4.6875V1.795H2.09167V1.54333C2.09167 1.26667 2.2875 1.09667 2.59667 1.09667H3.36167V0H2.375C1.40667 0 0.755833 0.593333 0.755833 1.4625V1.79583H0V2.8925H0.756667V5.8575V5.85667Z" fill="black"/>
</svg>
