<svg width="20" height="20" viewBox="0 0 20 20" fill="none" xmlns="http://www.w3.org/2000/svg">
<path d="M9.7999 0C7.4729 8.33333e-05 5.22182 0.82825 3.44957 2.33617C1.67724 3.84408 0.499319 5.9335 0.126569 8.2305C-0.246181 10.5274 0.210569 12.8821 1.41507 14.8732C2.61949 16.8641 4.49315 18.3616 6.70074 19.0976C7.19074 19.1833 7.37449 18.8893 7.37449 18.6321C7.37449 18.3993 7.36224 17.6276 7.36224 16.8068C4.89999 17.2601 4.26299 16.2067 4.06699 15.6554C3.84949 15.1193 3.50474 14.6442 3.06249 14.2712C2.71949 14.0874 2.22949 13.6342 3.05024 13.6219C3.36365 13.6559 3.66415 13.765 3.92649 13.9398C4.18874 14.1147 4.40507 14.3502 4.55699 14.6264C4.69099 14.8672 4.87124 15.0792 5.08732 15.2502C5.3034 15.4212 5.55115 15.5479 5.81632 15.6229C6.08149 15.698 6.35882 15.7201 6.63249 15.6878C6.90615 15.6556 7.17082 15.5697 7.41115 15.4349C7.45357 14.9367 7.67565 14.4708 8.03599 14.1242C5.85549 13.8792 3.57699 13.0339 3.57699 9.28542C3.56324 8.3115 3.92257 7.36917 4.58149 6.65175C4.2819 5.80525 4.3169 4.87625 4.67949 4.05475C4.67949 4.05475 5.50015 3.7975 7.37449 5.05925C8.97799 4.61825 10.6708 4.61825 12.2744 5.05925C14.1487 3.78525 14.9694 4.05475 14.9694 4.05475C15.332 4.87625 15.3671 5.80525 15.0674 6.65175C15.7282 7.36792 16.088 8.31117 16.0719 9.28542C16.0719 13.0462 13.7812 13.8792 11.6007 14.1242C11.8345 14.3612 12.0146 14.6458 12.1287 14.9586C12.2429 15.2715 12.2884 15.6052 12.2622 15.9372C12.2622 17.248 12.2499 18.3013 12.2499 18.6321C12.2499 18.8893 12.4337 19.1956 12.9237 19.0976C15.1273 18.3557 16.9956 16.8547 18.1949 14.8627C19.3943 12.8706 19.8467 10.5171 19.4713 8.22233C19.096 5.92767 17.9174 3.841 16.1458 2.33492C14.3743 0.82875 12.1252 0.00125 9.7999 0Z" fill="black"/>
</svg>
